<svg xmlns="http://www.w3.org/2000/svg" xmlns:xlink="http://www.w3.org/1999/xlink" width="640" zoomAndPan="magnify" viewBox="0 0 480 383.999986" height="512" preserveAspectRatio="xMidYMid meet" version="1.0"><path fill="#8ddfd4" d="M 120 48 C 120 21.523438 141.523438 0 168 0 L 432 0 C 458.476562 0 480 21.523438 480 48 L 480 264 C 480 290.476562 458.476562 312 432 312 L 252.601562 312 C 243.75 292.875 230.175781 276.375 213.300781 264 L 288 264 L 288 240 C 288 226.726562 298.726562 216 312 216 L 360 216 C 373.273438 216 384 226.726562 384 240 L 384 264 L 432 264 L 432 48 L 168 48 L 168 84.824219 C 153.898438 76.648438 137.476562 72 120 72 Z M 120 96 C 121.179688 96 122.355469 96.027344 123.53125 96.085938 C 124.710938 96.144531 125.882812 96.230469 127.058594 96.347656 C 128.230469 96.460938 129.398438 96.605469 130.566406 96.777344 C 131.730469 96.953125 132.890625 97.152344 134.046875 97.382812 C 135.203125 97.613281 136.351562 97.871094 137.496094 98.15625 C 138.636719 98.445312 139.773438 98.757812 140.902344 99.101562 C 142.027344 99.441406 143.148438 99.8125 144.257812 100.207031 C 145.367188 100.605469 146.464844 101.03125 147.554688 101.480469 C 148.640625 101.929688 149.71875 102.410156 150.785156 102.914062 C 151.847656 103.417969 152.902344 103.945312 153.941406 104.5 C 154.980469 105.058594 156.003906 105.636719 157.015625 106.242188 C 158.027344 106.847656 159.019531 107.480469 160 108.132812 C 160.980469 108.789062 161.945312 109.46875 162.890625 110.167969 C 163.835938 110.871094 164.765625 111.597656 165.675781 112.34375 C 166.585938 113.089844 167.480469 113.859375 168.351562 114.652344 C 169.226562 115.441406 170.078125 116.253906 170.910156 117.089844 C 171.746094 117.921875 172.558594 118.773438 173.347656 119.648438 C 174.140625 120.519531 174.910156 121.414062 175.65625 122.324219 C 176.402344 123.234375 177.128906 124.164062 177.832031 125.109375 C 178.53125 126.054688 179.210938 127.019531 179.867188 128 C 180.519531 128.980469 181.152344 129.972656 181.757812 130.984375 C 182.363281 131.996094 182.941406 133.019531 183.5 134.058594 C 184.054688 135.097656 184.582031 136.152344 185.085938 137.214844 C 185.589844 138.28125 186.070312 139.359375 186.519531 140.445312 C 186.96875 141.535156 187.394531 142.632812 187.792969 143.742188 C 188.1875 144.851562 188.558594 145.972656 188.898438 147.097656 C 189.242188 148.226562 189.554688 149.363281 189.84375 150.503906 C 190.128906 151.648438 190.386719 152.796875 190.617188 153.953125 C 190.847656 155.109375 191.046875 156.269531 191.21875 157.433594 C 191.394531 158.601562 191.539062 159.769531 191.652344 160.941406 C 191.769531 162.117188 191.855469 163.289062 191.914062 164.46875 C 191.972656 165.644531 192 166.820312 192 168 C 192 169.179688 191.972656 170.355469 191.914062 171.53125 C 191.855469 172.710938 191.769531 173.882812 191.652344 175.058594 C 191.539062 176.230469 191.394531 177.398438 191.21875 178.566406 C 191.046875 179.730469 190.847656 180.890625 190.617188 182.046875 C 190.386719 183.203125 190.128906 184.351562 189.84375 185.496094 C 189.554688 186.636719 189.242188 187.773438 188.898438 188.902344 C 188.558594 190.027344 188.1875 191.148438 187.792969 192.257812 C 187.394531 193.367188 186.96875 194.464844 186.519531 195.554688 C 186.070312 196.640625 185.589844 197.71875 185.085938 198.785156 C 184.582031 199.847656 184.054688 200.902344 183.5 201.941406 C 182.941406 202.980469 182.363281 204.003906 181.757812 205.015625 C 181.152344 206.027344 180.519531 207.019531 179.867188 208 C 179.210938 208.980469 178.53125 209.945312 177.832031 210.890625 C 177.128906 211.835938 176.402344 212.765625 175.65625 213.675781 C 174.910156 214.585938 174.140625 215.480469 173.347656 216.351562 C 172.558594 217.226562 171.746094 218.078125 170.910156 218.910156 C 170.078125 219.746094 169.226562 220.558594 168.351562 221.347656 C 167.480469 222.140625 166.585938 222.910156 165.675781 223.65625 C 164.765625 224.402344 163.835938 225.128906 162.890625 225.832031 C 161.945312 226.53125 160.980469 227.210938 160 227.867188 C 159.019531 228.519531 158.027344 229.152344 157.015625 229.757812 C 156.003906 230.363281 154.980469 230.941406 153.941406 231.5 C 152.902344 232.054688 151.847656 232.582031 150.785156 233.085938 C 149.71875 233.589844 148.640625 234.066406 147.554688 234.519531 C 146.464844 234.96875 145.367188 235.394531 144.257812 235.792969 C 143.148438 236.1875 142.027344 236.558594 140.902344 236.898438 C 139.773438 237.242188 138.636719 237.554688 137.496094 237.84375 C 136.351562 238.128906 135.203125 238.386719 134.046875 238.617188 C 132.890625 238.847656 131.730469 239.046875 130.566406 239.21875 C 129.398438 239.394531 128.230469 239.539062 127.058594 239.652344 C 125.882812 239.769531 124.710938 239.855469 123.53125 239.914062 C 122.355469 239.972656 121.179688 240 120 240 C 118.820312 240 117.644531 239.972656 116.46875 239.914062 C 115.289062 239.855469 114.117188 239.769531 112.941406 239.652344 C 111.769531 239.539062 110.601562 239.394531 109.433594 239.21875 C 108.269531 239.046875 107.109375 238.847656 105.953125 238.617188 C 104.796875 238.386719 103.648438 238.128906 102.503906 237.84375 C 101.363281 237.554688 100.226562 237.242188 99.097656 236.898438 C 97.972656 236.558594 96.851562 236.1875 95.742188 235.792969 C 94.632812 235.394531 93.535156 234.96875 92.445312 234.519531 C 91.359375 234.066406 90.28125 233.589844 89.214844 233.085938 C 88.152344 232.582031 87.097656 232.054688 86.058594 231.5 C 85.019531 230.941406 83.996094 230.363281 82.984375 229.757812 C 81.972656 229.152344 80.980469 228.519531 80 227.867188 C 79.019531 227.210938 78.054688 226.53125 77.109375 225.832031 C 76.164062 225.128906 75.234375 224.402344 74.324219 223.65625 C 73.414062 222.910156 72.519531 222.140625 71.648438 221.347656 C 70.773438 220.558594 69.921875 219.746094 69.089844 218.910156 C 68.253906 218.078125 67.441406 217.226562 66.652344 216.351562 C 65.859375 215.480469 65.089844 214.585938 64.34375 213.675781 C 63.597656 212.765625 62.871094 211.835938 62.167969 210.890625 C 61.46875 209.945312 60.789062 208.980469 60.132812 208 C 59.480469 207.019531 58.847656 206.027344 58.242188 205.015625 C 57.636719 204.003906 57.058594 202.980469 56.5 201.941406 C 55.945312 200.902344 55.417969 199.847656 54.914062 198.785156 C 54.410156 197.71875 53.929688 196.640625 53.480469 195.554688 C 53.03125 194.464844 52.605469 193.367188 52.207031 192.257812 C 51.8125 191.148438 51.441406 190.027344 51.101562 188.902344 C 50.757812 187.773438 50.445312 186.636719 50.15625 185.496094 C 49.871094 184.351562 49.613281 183.203125 49.382812 182.046875 C 49.152344 180.890625 48.953125 179.730469 48.777344 178.566406 C 48.605469 177.398438 48.460938 176.230469 48.347656 175.058594 C 48.230469 173.882812 48.144531 172.710938 48.085938 171.53125 C 48.027344 170.355469 48 169.179688 48 168 C 48 166.820312 48.027344 165.644531 48.085938 164.46875 C 48.144531 163.289062 48.230469 162.117188 48.347656 160.941406 C 48.460938 159.769531 48.605469 158.601562 48.777344 157.433594 C 48.953125 156.269531 49.152344 155.109375 49.382812 153.953125 C 49.613281 152.796875 49.871094 151.648438 50.15625 150.503906 C 50.445312 149.363281 50.757812 148.226562 51.101562 147.097656 C 51.441406 145.972656 51.8125 144.851562 52.207031 143.742188 C 52.605469 142.632812 53.03125 141.535156 53.480469 140.445312 C 53.929688 139.359375 54.410156 138.28125 54.914062 137.214844 C 55.417969 136.152344 55.945312 135.097656 56.5 134.058594 C 57.058594 133.019531 57.636719 131.996094 58.242188 130.984375 C 58.847656 129.972656 59.480469 128.980469 60.132812 128 C 60.789062 127.019531 61.46875 126.054688 62.167969 125.109375 C 62.871094 124.164062 63.597656 123.234375 64.34375 122.324219 C 65.089844 121.414062 65.859375 120.519531 66.652344 119.648438 C 67.441406 118.773438 68.253906 117.921875 69.089844 117.089844 C 69.921875 116.253906 70.773438 115.441406 71.648438 114.652344 C 72.519531 113.859375 73.414062 113.089844 74.324219 112.34375 C 75.234375 111.597656 76.164062 110.871094 77.109375 110.167969 C 78.054688 109.46875 79.019531 108.789062 80 108.132812 C 80.980469 107.480469 81.972656 106.847656 82.984375 106.242188 C 83.996094 105.636719 85.019531 105.058594 86.058594 104.5 C 87.097656 103.945312 88.152344 103.417969 89.214844 102.914062 C 90.28125 102.410156 91.359375 101.929688 92.445312 101.480469 C 93.535156 101.03125 94.632812 100.605469 95.742188 100.207031 C 96.851562 99.8125 97.972656 99.441406 99.097656 99.101562 C 100.226562 98.757812 101.363281 98.445312 102.503906 98.15625 C 103.648438 97.871094 104.796875 97.613281 105.953125 97.382812 C 107.109375 97.152344 108.269531 96.953125 109.433594 96.777344 C 110.601562 96.605469 111.769531 96.460938 112.941406 96.347656 C 114.117188 96.230469 115.289062 96.144531 116.46875 96.085938 C 117.644531 96.027344 118.820312 96 120 96 Z M 99.976562 264 L 139.949219 264 C 195.226562 264 240 308.773438 240 363.976562 C 240 375 231.074219 384 219.976562 384 L 20.023438 384 C 8.925781 384 0 375.074219 0 363.976562 C 0 308.773438 44.773438 264 99.976562 264 Z M 99.976562 264 " fill-opacity="1" fill-rule="nonzero"/></svg>