<?xml version="1.0" encoding="UTF-8"?>
<svg width="2158" height="2500" fill="#ffffff" version="1.1" viewBox="0 -3.5527e-15 820 950" xmlns="http://www.w3.org/2000/svg">
 <path d="m404.34 229.85c52.467 0 98.494-20.488 138.08-61.465s59.38-88.626 59.38-142.95c0-5.966-0.472-14.444-1.414-25.434-6.912 0.942-12.096 1.727-15.552 2.355-48.383 6.908-90.954 30.615-127.71 71.12-36.758 40.506-55.137 83.838-55.137 130 0 5.337 0.785 14.13 2.356 26.375zm188.03 720.15c37.387 0 78.701-25.59 123.94-76.772s79.8-111.31 103.68-180.39c-88.912-45.844-133.37-111.63-133.37-197.35 0-71.591 35.973-132.82 107.92-183.69-49.954-62.486-115.93-93.729-197.93-93.729-34.56 0-66.134 5.181-94.724 15.543l-17.908 6.594-24.035 9.42c-15.709 5.966-30.004 8.95-42.885 8.95-10.054 0-23.25-3.455-39.586-10.363l-18.38-7.536-17.436-7.065c-25.449-10.676-52.782-16.014-82-16.014-78.23 0-141.06 26.376-188.51 79.128-47.441 52.751-71.161 122.3-71.161 208.65 0 121.52 38.015 233.77 114.05 336.76 52.782 71.905 101.01 107.86 144.68 107.86 18.537 0 36.916-3.611 55.138-10.833l23.092-9.42 18.38-6.594c25.762-9.106 49.482-13.659 71.16-13.659 22.935 0 49.326 5.81 79.173 17.427l14.609 5.652c30.474 11.618 54.51 17.427 72.103 17.427z" fill="#000" stroke-width=".99961"/>
</svg>
