<?xml version="1.0" encoding="UTF-8"?>
<svg width="24px" height="24px" viewBox="0 0 24 24" version="1.1" xmlns="http://www.w3.org/2000/svg">
    <g stroke="none" stroke-width="1" fill="none" fill-rule="evenodd">
        <path d="M19,3 L5,3 C3.89,3 3,3.9 3,5 L3,19 C3,20.1 3.89,21 5,21 L19,21 C20.1,21 21,20.1 21,19 L21,5 C21,3.9 20.1,3 19,3 Z M19,19 L5,19 L5,5 L19,5 L19,19 Z" fill="currentColor"/>
        <path d="M12,6 C9.24,6 7,8.24 7,11 C7,13.76 9.24,16 12,16 C14.76,16 17,13.76 17,11 C17,8.24 14.76,6 12,6 Z M12,14 C10.34,14 9,12.66 9,11 C9,9.34 10.34,8 12,8 C13.66,8 15,9.34 15,11 C15,12.66 13.66,14 12,14 Z" fill="currentColor"/>
    </g>
</svg> 