<svg xmlns="http://www.w3.org/2000/svg" xmlns:xlink="http://www.w3.org/1999/xlink" width="500" zoomAndPan="magnify" viewBox="0 0 375 229.499994" height="306" preserveAspectRatio="xMidYMid meet" version="1.0"><defs><clipPath id="c796995a00"><path d="M 194 7 L 362.84375 7 L 362.84375 186 L 194 186 Z M 194 7 " clip-rule="nonzero"/></clipPath><clipPath id="fca90aaef6"><path d="M 97 32 L 278 32 L 278 222.449219 L 97 222.449219 Z M 97 32 " clip-rule="nonzero"/></clipPath></defs><g clip-path="url(#c796995a00)"><path fill="#6aa8a0" d="M 362.992188 162.777344 C 362.410156 147.089844 353.695312 132.847656 339.382812 122.339844 C 332.769531 117.492188 324.964844 113.4375 316.210938 110.410156 C 329.019531 99.683594 337.167969 83.578125 337.167969 65.5625 C 337.167969 33.265625 310.984375 7.078125 278.6875 7.078125 C 246.386719 7.078125 220.207031 33.265625 220.207031 65.5625 C 220.207031 83.578125 228.359375 99.683594 241.164062 110.410156 C 232.410156 113.4375 224.613281 117.492188 218.003906 122.339844 C 203.691406 132.84375 194.988281 147.089844 194.386719 162.777344 C 194.171875 168.28125 194.78125 172.917969 196.0625 176.867188 C 217.9375 182.273438 246.910156 185.566406 278.6875 185.566406 C 310.546875 185.566406 339.582031 182.257812 361.476562 176.832031 C 362.652344 172.886719 363.195312 168.257812 362.992188 162.777344 " fill-opacity="1" fill-rule="nonzero"/></g><path fill="#6aa8a0" d="M 180.714844 162.777344 C 180.128906 147.089844 171.417969 132.847656 157.097656 122.339844 C 150.488281 117.492188 142.6875 113.4375 133.933594 110.410156 C 146.738281 99.683594 154.890625 83.578125 154.890625 65.5625 C 154.890625 33.265625 128.707031 7.078125 96.410156 7.078125 C 64.109375 7.078125 37.925781 33.265625 37.925781 65.5625 C 37.925781 83.578125 46.082031 99.683594 58.886719 110.410156 C 50.128906 113.4375 42.335938 117.492188 35.726562 122.339844 C 21.414062 132.84375 12.707031 147.089844 12.105469 162.777344 C 11.894531 168.28125 12.5 172.917969 13.785156 176.867188 C 35.660156 182.273438 64.628906 185.566406 96.410156 185.566406 C 128.269531 185.566406 157.300781 182.257812 179.199219 176.832031 C 180.371094 172.886719 180.917969 168.257812 180.714844 162.777344 " fill-opacity="1" fill-rule="nonzero"/><g clip-path="url(#fca90aaef6)"><path fill="#8ddfd4" d="M 277.167969 197.800781 C 276.550781 181.121094 267.285156 165.976562 252.066406 154.8125 C 245.039062 149.652344 236.746094 145.347656 227.4375 142.125 C 241.050781 130.726562 249.714844 113.609375 249.714844 94.453125 C 249.714844 60.125 221.882812 32.289062 187.550781 32.289062 C 153.210938 32.289062 125.382812 60.125 125.382812 94.453125 C 125.382812 113.609375 134.046875 130.726562 147.660156 142.128906 C 138.355469 145.347656 130.0625 149.652344 123.042969 154.8125 C 107.824219 165.976562 98.570312 181.121094 97.929688 197.800781 C 97.707031 203.652344 98.355469 208.582031 99.714844 212.773438 C 122.972656 218.523438 153.765625 222.019531 187.550781 222.019531 C 221.417969 222.019531 252.28125 218.503906 275.554688 212.734375 C 276.804688 208.535156 277.382812 203.621094 277.167969 197.800781 " fill-opacity="1" fill-rule="nonzero"/></g></svg>