<svg width="5285" height="600" viewBox="0 0 5285 600" fill="none" xmlns="http://www.w3.org/2000/svg">
<path d="M519.614 300.058L433.012 250.058L433.012 450.057L519.614 500.057L519.614 300.058Z" fill="#5482C3"/>
<path d="M173.208 300.058L259.81 250.058L259.81 450.057L173.208 500.057L173.208 300.058Z" fill="#283F5F"/>
<path d="M173.204 200.057L346.409 300.057L346.409 400.057L173.204 300.057L173.204 200.057Z" fill="#476FA8"/>
<path d="M173.204 200.057L346.409 300.057L346.409 400.057L173.204 300.057L173.204 200.057Z" fill="#476FA8"/>
<path fill-rule="evenodd" clip-rule="evenodd" d="M173.204 200.057L86.6025 150.058L86.6025 450.057L173.205 500.057V300.057L346.409 400.057V300.057L173.205 200.058L173.204 200.057V200.057Z" fill="#476FA8"/>
<path fill-rule="evenodd" clip-rule="evenodd" d="M346.411 200.058L173.205 100.057L86.6025 150.057L346.41 300.057L433.012 250.057L606.217 150.057L519.614 100.057L346.411 200.058Z" fill="#699CE4"/>
<path fill-rule="evenodd" clip-rule="evenodd" d="M519.614 200.057L606.216 150.058V450.057L519.613 500.057V300.057L346.409 400.057V300.057L519.614 200.057Z" fill="#283F5F"/>
<path d="M794.763 449.352C791.929 449.352 789.663 448.502 787.963 446.802C786.263 445.102 785.413 442.835 785.413 440.002V177.352H701.263C698.429 177.352 696.163 176.502 694.462 174.802C692.763 173.102 691.913 170.835 691.913 168.002V161.627C691.913 158.51 692.763 156.102 694.462 154.402C696.163 152.702 698.429 151.852 701.263 151.852H895.913C899.029 151.852 901.438 152.702 903.138 154.402C904.838 156.102 905.688 158.51 905.688 161.627V168.002C905.688 170.835 904.838 173.102 903.138 174.802C901.438 176.502 899.029 177.352 895.913 177.352H812.188V440.002C812.188 442.835 811.338 445.102 809.638 446.802C807.938 448.502 805.529 449.352 802.413 449.352H794.763ZM949.31 449.352C946.476 449.352 944.21 448.502 942.51 446.802C940.81 445.102 939.96 442.835 939.96 440.002V161.627C939.96 158.51 940.81 156.102 942.51 154.402C944.21 152.702 946.476 151.852 949.31 151.852H956.96C960.076 151.852 962.485 152.702 964.185 154.402C965.885 156.102 966.735 158.51 966.735 161.627V285.727H1130.78V161.627C1130.78 158.51 1131.63 156.102 1133.33 154.402C1135.03 152.702 1137.3 151.852 1140.13 151.852H1147.78C1150.9 151.852 1153.31 152.702 1155.01 154.402C1156.71 156.102 1157.56 158.51 1157.56 161.627V440.002C1157.56 442.835 1156.71 445.102 1155.01 446.802C1153.31 448.502 1150.9 449.352 1147.78 449.352H1140.13C1137.3 449.352 1135.03 448.502 1133.33 446.802C1131.63 445.102 1130.78 442.835 1130.78 440.002V311.227H966.735V440.002C966.735 442.835 965.885 445.102 964.185 446.802C962.485 448.502 960.076 449.352 956.96 449.352H949.31ZM1229.89 449.352C1227.06 449.352 1224.79 448.502 1223.09 446.802C1221.39 445.102 1220.54 442.835 1220.54 440.002V161.627C1220.54 158.51 1221.39 156.102 1223.09 154.402C1224.79 152.702 1227.06 151.852 1229.89 151.852H1395.64C1398.76 151.852 1401.17 152.702 1402.87 154.402C1404.57 156.102 1405.42 158.51 1405.42 161.627V168.002C1405.42 170.835 1404.57 173.102 1402.87 174.802C1401.17 176.502 1398.76 177.352 1395.64 177.352H1247.32V285.727H1386.29C1389.41 285.727 1391.82 286.577 1393.52 288.277C1395.22 289.977 1396.07 292.385 1396.07 295.502V301.877C1396.07 304.71 1395.22 306.977 1393.52 308.677C1391.82 310.377 1389.41 311.227 1386.29 311.227H1247.32V423.852H1399.04C1402.16 423.852 1404.57 424.702 1406.27 426.402C1407.97 428.102 1408.82 430.51 1408.82 433.627V440.002C1408.82 442.835 1407.97 445.102 1406.27 446.802C1404.57 448.502 1402.16 449.352 1399.04 449.352H1229.89ZM1458.88 449.352C1455.76 449.352 1453.21 448.36 1451.23 446.377C1449.25 444.393 1448.26 441.985 1448.26 439.152V162.477C1448.26 159.36 1449.25 156.81 1451.23 154.827C1453.21 152.843 1455.76 151.852 1458.88 151.852H1492.46C1496.42 151.852 1499.4 152.985 1501.38 155.252C1503.36 157.235 1504.64 158.793 1505.21 159.927L1587.23 312.927L1670.11 159.927C1670.67 158.793 1671.95 157.235 1673.93 155.252C1675.91 152.985 1678.89 151.852 1682.86 151.852H1716.01C1719.12 151.852 1721.67 152.843 1723.66 154.827C1725.64 156.81 1726.63 159.36 1726.63 162.477V439.152C1726.63 441.985 1725.64 444.393 1723.66 446.377C1721.67 448.36 1719.12 449.352 1716.01 449.352H1680.31C1677.19 449.352 1674.64 448.36 1672.66 446.377C1670.96 444.393 1670.11 441.985 1670.11 439.152V255.127L1610.61 368.602C1609.19 371.152 1607.35 373.418 1605.08 375.402C1602.81 377.102 1599.84 377.952 1596.16 377.952H1578.73C1574.76 377.952 1571.65 377.102 1569.38 375.402C1567.4 373.418 1565.7 371.152 1564.28 368.602L1504.78 255.127V439.152C1504.78 441.985 1503.79 444.393 1501.81 446.377C1499.82 448.36 1497.41 449.352 1494.58 449.352H1458.88ZM1757.46 449.352C1755.2 449.352 1753.07 448.502 1751.09 446.802C1749.39 445.102 1748.54 442.977 1748.54 440.427C1748.54 439.293 1748.82 438.018 1749.39 436.602L1851.81 162.477C1852.66 159.643 1854.22 157.235 1856.49 155.252C1859.04 152.985 1862.44 151.852 1866.69 151.852H1913.01C1917.26 151.852 1920.52 152.985 1922.79 155.252C1925.06 157.235 1926.76 159.643 1927.89 162.477L2030.31 436.602C2030.6 438.018 2030.74 439.293 2030.74 440.427C2030.74 442.977 2029.89 445.102 2028.19 446.802C2026.49 448.502 2024.51 449.352 2022.24 449.352H1985.26C1981.3 449.352 1978.32 448.502 1976.34 446.802C1974.64 444.818 1973.51 442.977 1972.94 441.277L1952.96 389.427H1826.74L1806.76 441.277C1806.2 442.977 1804.92 444.818 1802.94 446.802C1801.24 448.502 1798.41 449.352 1794.44 449.352H1757.46ZM1841.61 340.552H1938.09L1889.64 209.227L1841.61 340.552ZM2063.62 449.352C2060.78 449.352 2058.37 448.36 2056.39 446.377C2054.41 444.393 2053.42 441.985 2053.42 439.152V162.477C2053.42 159.36 2054.41 156.81 2056.39 154.827C2058.37 152.843 2060.78 151.852 2063.62 151.852H2096.34C2100.31 151.852 2103.14 152.843 2104.84 154.827C2106.82 156.527 2108.1 157.802 2108.67 158.652L2231.07 349.052V162.477C2231.07 159.36 2231.92 156.81 2233.62 154.827C2235.6 152.843 2238.15 151.852 2241.27 151.852H2276.97C2280.08 151.852 2282.63 152.843 2284.62 154.827C2286.6 156.81 2287.59 159.36 2287.59 162.477V438.727C2287.59 441.843 2286.6 444.393 2284.62 446.377C2282.63 448.36 2280.22 449.352 2277.39 449.352H2244.24C2240.27 449.352 2237.44 448.36 2235.74 446.377C2234.04 444.393 2232.77 443.118 2231.92 442.552L2109.94 256.402V439.152C2109.94 441.985 2108.95 444.393 2106.97 446.377C2104.98 448.36 2102.43 449.352 2099.32 449.352H2063.62ZM2347.1 449.352C2344.27 449.352 2341.86 448.36 2339.88 446.377C2337.9 444.393 2336.9 441.985 2336.9 439.152V162.052C2336.9 159.218 2337.9 156.81 2339.88 154.827C2341.86 152.843 2344.27 151.852 2347.1 151.852H2387.05C2390.17 151.852 2392.58 152.843 2394.28 154.827C2396.26 156.81 2397.25 159.218 2397.25 162.052V439.152C2397.25 441.985 2396.26 444.393 2394.28 446.377C2392.58 448.36 2390.17 449.352 2387.05 449.352H2347.1ZM2457.11 449.352C2454.27 449.352 2451.87 448.36 2449.88 446.377C2447.9 444.393 2446.91 441.985 2446.91 439.152V162.477C2446.91 159.36 2447.9 156.81 2449.88 154.827C2451.87 152.843 2454.27 151.852 2457.11 151.852H2641.56C2644.67 151.852 2647.22 152.843 2649.21 154.827C2651.19 156.81 2652.18 159.36 2652.18 162.477V192.227C2652.18 195.343 2651.19 197.893 2649.21 199.877C2647.22 201.577 2644.67 202.427 2641.56 202.427H2505.13V283.177H2633.06C2636.17 283.177 2638.72 284.168 2640.71 286.152C2642.69 288.135 2643.68 290.685 2643.68 293.802V323.552C2643.68 326.385 2642.69 328.793 2640.71 330.777C2638.72 332.76 2636.17 333.752 2633.06 333.752H2505.13V439.152C2505.13 441.985 2504.14 444.393 2502.16 446.377C2500.17 448.36 2497.62 449.352 2494.51 449.352H2457.11ZM2695.36 449.352C2692.52 449.352 2690.11 448.36 2688.13 446.377C2686.15 444.393 2685.16 441.985 2685.16 439.152V162.477C2685.16 159.36 2686.15 156.81 2688.13 154.827C2690.11 152.843 2692.52 151.852 2695.36 151.852H2882.36C2885.47 151.852 2888.02 152.843 2890.01 154.827C2891.99 156.81 2892.98 159.36 2892.98 162.477V190.527C2892.98 193.36 2891.99 195.768 2890.01 197.752C2888.02 199.735 2885.47 200.727 2882.36 200.727H2742.53V275.952H2873.01C2876.12 275.952 2878.67 276.943 2880.66 278.927C2882.64 280.627 2883.63 283.035 2883.63 286.152V312.502C2883.63 315.618 2882.64 318.168 2880.66 320.152C2878.67 321.852 2876.12 322.702 2873.01 322.702H2742.53V400.477H2885.76C2888.87 400.477 2891.42 401.468 2893.41 403.452C2895.39 405.435 2896.38 407.985 2896.38 411.102V439.152C2896.38 441.985 2895.39 444.393 2893.41 446.377C2891.42 448.36 2888.87 449.352 2885.76 449.352H2695.36ZM3035.81 453.602C3009.46 453.602 2987.36 449.777 2969.51 442.127C2951.94 434.193 2938.49 423.993 2929.14 411.527C2920.07 398.777 2915.25 385.46 2914.69 371.577C2914.69 369.027 2915.54 366.902 2917.24 365.202C2918.94 363.502 2921.06 362.652 2923.61 362.652H2961.44C2965.12 362.652 2967.81 363.502 2969.51 365.202C2971.49 366.618 2973.19 368.46 2974.61 370.727C2976.31 376.11 2979.57 381.493 2984.39 386.877C2989.2 391.977 2995.72 396.227 3003.94 399.627C3012.44 403.027 3023.06 404.727 3035.81 404.727C3056.21 404.727 3071.37 401.327 3081.29 394.527C3091.49 387.727 3096.59 378.518 3096.59 366.902C3096.59 358.685 3093.89 352.168 3088.51 347.352C3083.13 342.252 3074.77 337.718 3063.44 333.752C3052.39 329.502 3037.65 325.11 3019.24 320.577C2997.99 315.477 2980.14 309.385 2965.69 302.302C2951.52 294.935 2940.75 285.727 2933.39 274.677C2926.3 263.627 2922.76 249.602 2922.76 232.602C2922.76 216.168 2927.15 201.577 2935.94 188.827C2945 176.077 2957.75 166.018 2974.19 158.652C2990.9 151.285 3010.74 147.602 3033.69 147.602C3052.1 147.602 3068.39 150.152 3082.56 155.252C3096.73 160.068 3108.49 166.585 3117.84 174.802C3127.19 182.735 3134.27 191.377 3139.09 200.727C3144.19 209.793 3146.88 218.718 3147.16 227.502C3147.16 229.768 3146.31 231.893 3144.61 233.877C3143.19 235.577 3141.07 236.427 3138.24 236.427H3098.71C3096.44 236.427 3094.18 235.86 3091.91 234.727C3089.64 233.593 3087.8 231.468 3086.39 228.352C3084.69 219.568 3079.16 212.06 3069.81 205.827C3060.46 199.593 3048.42 196.477 3033.69 196.477C3018.39 196.477 3006.06 199.31 2996.71 204.977C2987.36 210.643 2982.69 219.427 2982.69 231.327C2982.69 239.26 2984.95 245.918 2989.49 251.302C2994.3 256.402 3001.81 260.935 3012.01 264.902C3022.49 268.868 3036.24 273.118 3053.24 277.652C3077.32 283.035 3097.01 289.268 3112.31 296.352C3127.61 303.435 3138.8 312.502 3145.89 323.552C3152.97 334.318 3156.51 348.06 3156.51 364.777C3156.51 383.477 3151.41 399.485 3141.21 412.802C3131.29 425.835 3117.27 435.893 3099.14 442.977C3081 450.06 3059.89 453.602 3035.81 453.602ZM3260.55 449.352C3257.71 449.352 3255.3 448.36 3253.32 446.377C3251.34 444.393 3250.35 441.985 3250.35 439.152V204.127H3171.72C3168.89 204.127 3166.48 203.135 3164.5 201.152C3162.51 199.168 3161.52 196.76 3161.52 193.927V162.477C3161.52 159.36 3162.51 156.81 3164.5 154.827C3166.48 152.843 3168.89 151.852 3171.72 151.852H3388.47C3391.59 151.852 3394.14 152.843 3396.12 154.827C3398.1 156.81 3399.1 159.36 3399.1 162.477V193.927C3399.1 196.76 3398.1 199.168 3396.12 201.152C3394.14 203.135 3391.59 204.127 3388.47 204.127H3310.27V439.152C3310.27 441.985 3309.28 444.393 3307.3 446.377C3305.31 448.36 3302.76 449.352 3299.65 449.352H3260.55ZM3441.37 449.352C3438.54 449.352 3436.27 448.502 3434.57 446.802C3432.87 445.102 3432.02 442.835 3432.02 440.002V161.627C3432.02 158.51 3432.87 156.102 3434.57 154.402C3436.27 152.702 3438.54 151.852 3441.37 151.852H3450.3C3453.13 151.852 3455.25 152.56 3456.67 153.977C3458.09 155.393 3458.94 156.385 3459.22 156.952L3616.05 396.652V161.627C3616.05 158.51 3616.9 156.102 3618.6 154.402C3620.3 152.702 3622.56 151.852 3625.4 151.852H3633.05C3636.16 151.852 3638.57 152.702 3640.27 154.402C3641.97 156.102 3642.82 158.51 3642.82 161.627V439.577C3642.82 442.41 3641.97 444.818 3640.27 446.802C3638.57 448.502 3636.3 449.352 3633.47 449.352H3624.12C3621.29 449.352 3619.16 448.643 3617.75 447.227C3616.61 445.81 3615.76 444.818 3615.2 444.252L3458.8 205.402V440.002C3458.8 442.835 3457.95 445.102 3456.25 446.802C3454.55 448.502 3452.14 449.352 3449.02 449.352H3441.37ZM3714.9 449.352C3712.06 449.352 3709.8 448.502 3708.1 446.802C3706.4 445.102 3705.55 442.835 3705.55 440.002V161.627C3705.55 158.51 3706.4 156.102 3708.1 154.402C3709.8 152.702 3712.06 151.852 3714.9 151.852H3880.65C3883.76 151.852 3886.17 152.702 3887.87 154.402C3889.57 156.102 3890.42 158.51 3890.42 161.627V168.002C3890.42 170.835 3889.57 173.102 3887.87 174.802C3886.17 176.502 3883.76 177.352 3880.65 177.352H3732.32V285.727H3871.3C3874.41 285.727 3876.82 286.577 3878.52 288.277C3880.22 289.977 3881.07 292.385 3881.07 295.502V301.877C3881.07 304.71 3880.22 306.977 3878.52 308.677C3876.82 310.377 3874.41 311.227 3871.3 311.227H3732.32V423.852H3884.05C3887.16 423.852 3889.57 424.702 3891.27 426.402C3892.97 428.102 3893.82 430.51 3893.82 433.627V440.002C3893.82 442.835 3892.97 445.102 3891.27 446.802C3889.57 448.502 3887.16 449.352 3884.05 449.352H3714.9ZM4014.44 449.352C4011.6 449.352 4009.34 448.502 4007.64 446.802C4005.94 445.102 4005.09 442.835 4005.09 440.002V177.352H3920.94C3918.1 177.352 3915.84 176.502 3914.14 174.802C3912.44 173.102 3911.59 170.835 3911.59 168.002V161.627C3911.59 158.51 3912.44 156.102 3914.14 154.402C3915.84 152.702 3918.1 151.852 3920.94 151.852H4115.59C4118.7 151.852 4121.11 152.702 4122.81 154.402C4124.51 156.102 4125.36 158.51 4125.36 161.627V168.002C4125.36 170.835 4124.51 173.102 4122.81 174.802C4121.11 176.502 4118.7 177.352 4115.59 177.352H4031.86V440.002C4031.86 442.835 4031.01 445.102 4029.31 446.802C4027.61 448.502 4025.2 449.352 4022.09 449.352H4014.44ZM4211.06 449.352C4207.66 449.352 4204.97 448.643 4202.98 447.227C4201.28 445.527 4200.01 442.835 4199.16 439.152L4140.93 165.452C4140.65 164.318 4140.37 163.327 4140.08 162.477C4140.08 161.343 4140.08 160.635 4140.08 160.352C4140.08 158.085 4140.93 156.102 4142.63 154.402C4144.33 152.702 4146.32 151.852 4148.58 151.852H4157.51C4162.89 151.852 4166.01 153.977 4166.86 158.227L4216.58 400.477L4269.28 227.502C4270.13 224.952 4271.55 222.685 4273.53 220.702C4275.8 218.718 4278.78 217.727 4282.46 217.727H4291.81C4295.78 217.727 4298.75 218.718 4300.73 220.702C4302.72 222.685 4304.13 224.952 4304.98 227.502L4357.68 400.477L4407.41 158.227C4408.26 153.977 4411.38 151.852 4416.76 151.852H4425.68C4427.95 151.852 4429.93 152.702 4431.63 154.402C4433.33 156.102 4434.18 158.085 4434.18 160.352C4434.18 160.635 4434.04 161.343 4433.76 162.477C4433.76 163.327 4433.62 164.318 4433.33 165.452L4375.11 439.152C4374.26 442.835 4372.84 445.527 4370.86 447.227C4369.16 448.643 4366.61 449.352 4363.21 449.352H4356.83C4353.43 449.352 4350.6 448.502 4348.33 446.802C4346.35 445.102 4344.79 442.552 4343.66 439.152L4287.13 259.802L4230.61 439.152C4229.48 442.552 4227.78 445.102 4225.51 446.802C4223.53 448.502 4220.83 449.352 4217.43 449.352H4211.06ZM4574.56 453.602C4551.04 453.602 4531.07 449.493 4514.63 441.277C4498.2 432.777 4485.59 419.885 4476.81 402.602C4468.03 385.035 4463.21 362.935 4462.36 336.302C4462.08 323.552 4461.93 311.652 4461.93 300.602C4461.93 289.552 4462.08 277.652 4462.36 264.902C4463.21 238.552 4468.31 216.735 4477.66 199.452C4487.01 181.885 4499.9 168.852 4516.33 160.352C4533.05 151.852 4552.46 147.602 4574.56 147.602C4596.66 147.602 4615.93 151.852 4632.36 160.352C4649.08 168.852 4662.11 181.885 4671.46 199.452C4681.09 216.735 4686.19 238.552 4686.76 264.902C4687.33 277.652 4687.61 289.552 4687.61 300.602C4687.61 311.652 4687.33 323.552 4686.76 336.302C4686.19 362.935 4681.38 385.035 4672.31 402.602C4663.53 419.885 4650.92 432.777 4634.48 441.277C4618.05 449.493 4598.08 453.602 4574.56 453.602ZM4574.56 428.102C4598.93 428.102 4618.9 420.735 4634.48 406.002C4650.35 391.268 4658.85 367.327 4659.98 334.177C4660.55 321.427 4660.83 310.235 4660.83 300.602C4660.83 290.968 4660.55 279.777 4659.98 267.027C4659.42 244.927 4655.31 226.935 4647.66 213.052C4640.29 199.168 4630.23 189.11 4617.48 182.877C4605.02 176.36 4590.71 173.102 4574.56 173.102C4558.69 173.102 4544.38 176.36 4531.63 182.877C4519.17 189.11 4509.11 199.168 4501.46 213.052C4494.09 226.935 4489.98 244.927 4489.13 267.027C4488.85 279.777 4488.71 290.968 4488.71 300.602C4488.71 310.235 4488.85 321.427 4489.13 334.177C4490.27 367.327 4498.77 391.268 4514.63 406.002C4530.5 420.735 4550.48 428.102 4574.56 428.102ZM4747.58 449.352C4744.75 449.352 4742.48 448.502 4740.78 446.802C4739.08 445.102 4738.23 442.835 4738.23 440.002V161.627C4738.23 158.51 4739.08 156.102 4740.78 154.402C4742.48 152.702 4744.75 151.852 4747.58 151.852H4846.61C4876.36 151.852 4900.01 158.935 4917.58 173.102C4935.43 187.268 4944.36 208.802 4944.36 237.702C4944.36 260.368 4938.69 278.502 4927.36 292.102C4916.02 305.702 4900.3 314.91 4880.18 319.727L4948.61 436.177C4949.46 437.877 4949.88 439.435 4949.88 440.852C4949.88 443.118 4949.03 445.102 4947.33 446.802C4945.63 448.502 4943.65 449.352 4941.38 449.352H4936.28C4931.75 449.352 4928.35 448.218 4926.08 445.952C4923.81 443.402 4921.83 440.71 4920.13 437.877L4852.56 323.552H4765.01V440.002C4765.01 442.835 4764.16 445.102 4762.46 446.802C4760.76 448.502 4758.35 449.352 4755.23 449.352H4747.58ZM4765.01 298.052H4844.48C4869.13 298.052 4887.41 293.093 4899.31 283.177C4911.49 272.977 4917.58 257.818 4917.58 237.702C4917.58 217.585 4911.49 202.568 4899.31 192.652C4887.41 182.452 4869.13 177.352 4844.48 177.352H4765.01V298.052ZM5002.43 449.352C4999.6 449.352 4997.33 448.502 4995.63 446.802C4993.93 445.102 4993.08 442.835 4993.08 440.002V161.627C4993.08 158.51 4993.93 156.102 4995.63 154.402C4997.33 152.702 4999.6 151.852 5002.43 151.852H5010.08C5013.2 151.852 5015.61 152.702 5017.31 154.402C5019.01 156.102 5019.86 158.51 5019.86 161.627V272.127L5148.63 158.227C5149.77 157.377 5151.61 156.102 5154.16 154.402C5156.71 152.702 5160.25 151.852 5164.78 151.852H5171.58C5173.85 151.852 5175.83 152.702 5177.53 154.402C5179.23 156.102 5180.08 158.085 5180.08 160.352C5180.08 162.618 5179.37 164.46 5177.96 165.877L5033.88 294.227L5186.88 434.902C5188.58 436.602 5189.43 438.585 5189.43 440.852C5189.43 443.118 5188.58 445.102 5186.88 446.802C5185.18 448.502 5183.2 449.352 5180.93 449.352H5173.71C5169.17 449.352 5165.63 448.502 5163.08 446.802C5160.53 445.102 5158.69 443.827 5157.56 442.977L5019.86 317.177V440.002C5019.86 442.835 5019.01 445.102 5017.31 446.802C5015.61 448.502 5013.2 449.352 5010.08 449.352H5002.43Z" fill="black"/>
</svg>
