<svg width="24" height="24" viewBox="0 0 24 24" fill="none" xmlns="http://www.w3.org/2000/svg">
<path d="M23.4308 23.4363C24.18 22.6724 24.18 21.4237 23.4454 20.6892L14.7636 12.0074L23.4454 3.3108C24.18 2.57629 24.1946 1.31294 23.4308 0.563747C22.6816 -0.185449 21.4182 -0.185449 20.6837 0.549057L12.0018 9.23092L3.30528 0.549057C2.60015 -0.170759 1.30742 -0.200139 0.558225 0.563747C-0.190972 1.31294 -0.176282 2.60568 0.543535 3.3108L9.2254 12.0074L0.543535 20.6892C-0.176282 21.409 -0.190972 22.6871 0.558225 23.4363C1.32211 24.1855 2.60015 24.1708 3.30528 23.4657L12.0018 14.7691L20.6837 23.451C21.4182 24.1855 22.6816 24.1855 23.4308 23.4363Z" fill="white"/>
</svg>
