<svg width="24" height="24" viewBox="0 0 24 24" fill="none" xmlns="http://www.w3.org/2000/svg">
<g clip-path="url(#clip0_587_2432)">
<path d="M12 0C5.36761 0 0 5.367 0 12C0 18.6323 5.367 24 12 24C18.6324 24 24 18.633 24 12C24 5.36761 18.633 0 12 0ZM12 22.3256C6.30647 22.3256 1.67442 17.6936 1.67442 12C1.67442 6.30642 6.30647 1.67442 12 1.67442C17.6936 1.67442 22.3256 6.30642 22.3256 12C22.3256 17.6936 17.6936 22.3256 12 22.3256Z" fill="white"/>
<path d="M11.645 15.1839C10.9815 15.1839 10.4445 15.7368 10.4445 16.4001C10.4445 17.0478 10.9657 17.6165 11.645 17.6165C12.3242 17.6165 12.8612 17.0478 12.8612 16.4001C12.8612 15.7368 12.3083 15.1839 11.645 15.1839ZM11.8503 5.9751C9.71784 5.9751 8.73853 7.2388 8.73853 8.09174C8.73853 8.70777 9.25978 8.99211 9.68624 8.99211C10.5392 8.99211 10.1917 7.7758 11.8029 7.7758C12.5926 7.7758 13.2245 8.12333 13.2245 8.84994C13.2245 9.70288 12.3399 10.1925 11.8187 10.6348C11.3606 11.0296 10.7604 11.6773 10.7604 13.0357C10.7604 13.8571 10.9815 14.094 11.6291 14.094C12.4031 14.094 12.561 13.7466 12.561 13.4464C12.561 12.625 12.5768 12.1512 13.4456 11.4719C13.8721 11.1403 15.2147 10.0661 15.2147 8.58135C15.2147 7.09658 13.8721 5.9751 11.8503 5.9751Z" fill="white"/>
</g>
<defs>
<clipPath id="clip0_587_2432">
<rect width="24" height="24" fill="white"/>
</clipPath>
</defs>
</svg>
