<svg width="24" height="24" viewBox="0 0 24 24" fill="none" xmlns="http://www.w3.org/2000/svg">
<path d="M12.0018 16.2982C14.3499 16.2982 16.2975 14.3594 16.2975 12C16.2975 9.64064 14.3499 7.70182 12.0018 7.70182C9.64692 7.70182 7.69929 9.64064 7.69929 12C7.69929 14.3594 9.64692 16.2982 12.0018 16.2982ZM12.0018 14.4964C10.6362 14.4964 9.50291 13.3574 9.50291 12C9.50291 10.6426 10.6362 9.50361 12.0018 9.50361C13.3606 9.50361 14.4939 10.6426 14.4939 12C14.4939 13.3574 13.3606 14.4964 12.0018 14.4964ZM12.0018 6.42655C12.5131 6.42655 12.9413 5.99193 12.9413 5.48114V3.94175C12.9413 3.43098 12.5131 3 12.0018 3C11.4837 3 11.0555 3.43098 11.0555 3.94175V5.48114C11.0555 5.99193 11.4837 6.42655 12.0018 6.42655ZM15.9424 8.07896C16.3012 8.43743 16.9152 8.44107 17.2841 8.06938L18.3753 6.98292C18.7273 6.62446 18.7241 6.00422 18.3657 5.63937C18.0069 5.28092 17.3929 5.28731 17.0309 5.64895L15.9328 6.7491C15.5808 7.10758 15.584 7.71411 15.9424 8.07896ZM17.5768 12C17.5768 12.5108 18.0119 12.9454 18.5232 12.9454H20.0504C20.5686 12.9454 21 12.5108 21 12C21 11.4892 20.5686 11.0546 20.0504 11.0546H18.5232C18.0119 11.0546 17.5768 11.4892 17.5768 12ZM15.9328 15.9406C15.5808 16.2991 15.584 16.9025 15.9424 17.2673L17.0436 18.3643C17.4024 18.7227 18.0165 18.7127 18.3817 18.3479C18.7337 17.9894 18.7305 17.376 18.3721 17.0143L17.2708 15.9311C16.912 15.5726 16.298 15.5758 15.9328 15.9406ZM12.0018 17.5735C11.4837 17.5735 11.0555 18.0081 11.0555 18.5189V20.0582C11.0555 20.569 11.4837 21 12.0018 21C12.5131 21 12.9413 20.569 12.9413 20.0582V18.5189C12.9413 18.0081 12.5131 17.5735 12.0018 17.5735ZM8.06403 15.9406C7.69881 15.5758 7.07796 15.5726 6.71912 15.9311L5.63155 17.0075C5.26634 17.3692 5.26315 17.9825 5.61512 18.341C5.98033 18.7059 6.59436 18.7159 6.95318 18.3574L8.04759 17.2673C8.41281 16.9025 8.41602 16.2991 8.06403 15.9406ZM6.42319 12C6.42319 11.4892 5.99177 11.0546 5.47361 11.0546H3.94636C3.42821 11.0546 3 11.4892 3 12C3 12.5108 3.42821 12.9454 3.94636 12.9454H5.47361C5.99177 12.9454 6.42319 12.5108 6.42319 12ZM8.04759 8.07896C8.41281 7.72095 8.41602 7.10073 8.06403 6.7491L6.9728 5.64895C6.61764 5.29415 5.99677 5.28092 5.6448 5.63937C5.27958 6.00422 5.2764 6.62446 5.62837 6.97608L6.71274 8.06938C7.07475 8.43423 7.68877 8.43743 8.04759 8.07896Z" fill="white"/>
</svg>
