<svg width="24" height="24" viewBox="0 0 24 24" fill="none" xmlns="http://www.w3.org/2000/svg">
<path d="M12 7C11.4 7 11 6.6 11 6V3C11 2.4 11.4 2 12 2C12.6 2 13 2.4 13 3V6C13 6.6 12.6 7 12 7ZM16.3 8.8C16 8.8 15.8 8.7 15.6 8.5C15.2 8.1 15.2 7.5 15.6 7.1L17.8 5C18.2 4.6 18.8 4.6 19.2 5C19.6 5.4 19.6 6 19.2 6.4L17 8.5C16.8 8.7 16.5 8.8 16.3 8.8ZM21 13H18C17.4 13 17 12.6 17 12C17 11.4 17.4 11 18 11H21C21.6 11 22 11.4 22 12C22 12.6 21.6 13 21 13ZM18.4 19.4C18.1 19.4 17.9 19.3 17.7 19.1L15.5 17C15.1 16.6 15.1 16 15.5 15.6C15.9 15.2 16.5 15.2 16.9 15.6L19.1 17.8C19.5 18.2 19.5 18.8 19.1 19.2C18.9 19.3 18.7 19.4 18.4 19.4ZM12 22C11.4 22 11 21.6 11 21V18C11 17.4 11.4 17 12 17C12.6 17 13 17.4 13 18V21C13 21.6 12.6 22 12 22ZM5.6 19.4C5.3 19.4 5.1 19.3 4.9 19.1C4.5 18.7 4.5 18.1 4.9 17.7L7 15.5C7.4 15.1 8 15.1 8.4 15.5C8.8 15.9 8.8 16.5 8.4 16.9L6.3 19.1C6.1 19.3 5.9 19.4 5.6 19.4ZM6 13H3C2.4 13 2 12.6 2 12C2 11.4 2.4 11 3 11H6C6.6 11 7 11.4 7 12C7 12.6 6.6 13 6 13ZM7.8 8.8C7.5 8.8 7.2 8.7 7 8.5L4.9 6.3C4.5 5.9 4.5 5.3 4.9 4.9C5.3 4.5 5.9 4.5 6.3 4.9L8.5 7C8.9 7.4 8.9 8 8.5 8.4C8.3 8.7 8 8.8 7.8 8.8Z" fill="white"/>
</svg>
